<svg xmlns="http://www.w3.org/2000/svg" viewBox="0 0 800 800" width="100%" height="100%">
  <style>
    .line-art { fill: none; stroke: #000000; stroke-width: 2.8; stroke-linecap: round; stroke-linejoin: round; }
    .main-circle { fill: none; stroke: #000000; stroke-width: 3.5; }
    .brand-text-main { font-family: 'Montserrat', 'Helvetica Neue', sans-serif; font-weight: 700; fill: #000000; font-size: 55px; letter-spacing: 14px; text-anchor: middle; }
    .brand-text-date { font-family: 'Montserrat', 'Helvetica Neue', sans-serif; font-weight: 400; fill: #000000; font-size: 22px; letter-spacing: 9px; text-anchor: middle; }
  </style>

  <!-- CÍRCULO BASE -->
  <circle class="main-circle" cx="400" cy="400" r="230" />

  <!-- TEXTO CENTRAL ESTILO FESTIVAL -->
  <text x="407" y="390" class="brand-text-main">G&amp;M</text>
  <text x="405" y="445" class="brand-text-date">17/10/2026</text>

  <!-- 12:00 - CATEDRAL (NORTE) -->
  <g transform="translate(400, 170)">
    <path class="line-art" d="M -25,0 L -25,-30 L -12,-40 L -12,-65 L 0,-95 L 0,-110 M 0,-95 L 12,-65 L 12,-40 L 25,-30 L 25,0 M -12,-40 L 12,-40 M -25,-30 L 25,-30 M 0,-110 L 0,-120 M -4,-116 L 4,-116 M -35,0 L -35,-20 L -25,-30 M 35,0 L 35,-20 L 25,-30" />
  </g>

  <!-- 10:00 - MOLINOS (SUPERIOR IZQUIERDA) -->
  <g transform="translate(225, 240) rotate(-40)">
    <path class="line-art" d="M -15,0 L -8,-45 L 8,-45 L 15,0 Z M -35,-65 L 35,-25 M -20,-15 L 20,-75" />
    <circle cx="0" cy="-45" r="2" fill="#000" />
    <g transform="translate(40, 15) scale(0.8)">
      <path class="line-art" d="M -15,0 L -8,-45 L 8,-45 L 15,0 Z M -30,-30 L 30,-60 M -12,-65 L 12,-25" />
    </g>
  </g>

  <!-- 1:30 - SKYLINE Y TORRE (SUPERIOR DERECHA) -->
  <g transform="translate(545, 225) rotate(35)">
    <path class="line-art" d="M -50,0 L -50,-20 L -35,-20 L -35,-40 L -15,-40 L -15,-15 L 0,-15 L 0,-30 L 15,-30 L 15,0 M 30,0 L 30,-75 L 26,-80 L 26,-105 M 30,-80 L 34,-80 L 34,-75 M 20,-60 L 40,-60 L 40,-68 L 20,-68 Z M 45,-15 L 45,-5 L 60,-5 L 60,-25 L 75,-25 L 75,0" />
  </g>

  <!-- 3:00 - PUENTE DE ARCOS (DERECHA) -->
  <g transform="translate(630, 400) rotate(90)">
    <path class="line-art" d="M -55,-10 L 55,-10 M -45,-10 L -45,10 L -30,10 L -30,-10 M -20,-10 L -20,12 L -2,12 L -2,-10 M 8,-10 L 8,12 L 26,12 L 26,-10 M 35,-10 L 35,10 L 48,10 L 48,-10" />
    <path class="line-art" d="M -45,0 A 7.5,7.5 0 0,1 -30,0 M -20,2 A 9,9 0 0,1 -2,2 M 8,2 A 9,9 0 0,1 26,2 M 35,0 A 7.5,7.5 0 0,1 48,0" />
    <path class="line-art" d="M -65,-10 C -60,-25 -50,-25 -45,-10" />
  </g>

  <!-- 4:30 - FRONTÓN (INFERIOR DERECHA) -->
  <g transform="translate(535, 565) rotate(135)">
    <path class="line-art" d="M -40,0 L -40,-45 L 30,-45 L 30,0 M -40,-5 L 30,-5 M -20,0 L -20,-15 L 0,-15 L 0,0 M -2,-45 L -2,-53 M 2,-45 L 2,-53 M -5,-50 L 5,-50" />
  </g>
</svg>
